# xmcd
#
# Track frame offsets: 
#        150
#        19941
#        35506
#        52773
#        70368
#        87971
#        105543
#        123513
#        142573
#        164521
#        181648
#        198405
#        218373
#        237049
#
# Disc length: 3382 seconds
#
# Revision: 0
# Processed by: cddbd v1.5.2PL0 Copyright (c) Steve Scherf et al.
# Submitted via: ExactAudioCopy v0.95b4
#
DISCID=ad0d340e
DTITLE=Leona Lewis - Spirit
DYEAR=2008
DGENRE=Blues
TTITLE0=Bleeding Love
TTITLE1=Whatever It Takes
TTITLE2=Homeless
TTITLE3=Better In Time
TTITLE4=Yesterday
TTITLE5=Take A Bow
TTITLE6=I Will Be
TTITLE7=Angel
TTITLE8=Here I Am
TTITLE9=I'm You
TTITLE10=The Best You Never Had
TTITLE11=The First Time Ever I Saw Your Face
TTITLE12=Footprints In The Sand
TTITLE13=Forgive Me
EXTD=
EXTT0=
EXTT1=
EXTT2=
EXTT3=
EXTT4=
EXTT5=
EXTT6=
EXTT7=
EXTT8=
EXTT9=
EXTT10=
EXTT11=
EXTT12=
EXTT13=
PLAYORDER=
